<?xml version="1.0" standalone="no"?><svg xmlns="http://www.w3.org/2000/svg" viewBox="0 0 1440 320"><path fill="#5000ca" fill-opacity="1" d="M0,288L6.2,256C12.3,224,25,160,37,144C49.2,128,62,160,74,192C86.2,224,98,256,111,240C123.1,224,135,160,148,160C160,160,172,224,185,218.7C196.9,213,209,139,222,128C233.8,117,246,171,258,208C270.8,245,283,267,295,240C307.7,213,320,139,332,138.7C344.6,139,357,213,369,250.7C381.5,288,394,288,406,266.7C418.5,245,431,203,443,181.3C455.4,160,468,160,480,165.3C492.3,171,505,181,517,197.3C529.2,213,542,235,554,208C566.2,181,578,107,591,85.3C603.1,64,615,96,628,90.7C640,85,652,43,665,26.7C676.9,11,689,21,702,26.7C713.8,32,726,32,738,64C750.8,96,763,160,775,197.3C787.7,235,800,245,812,213.3C824.6,181,837,107,849,106.7C861.5,107,874,181,886,197.3C898.5,213,911,171,923,176C935.4,181,948,235,960,224C972.3,213,985,139,997,112C1009.2,85,1022,107,1034,117.3C1046.2,128,1058,128,1071,154.7C1083.1,181,1095,235,1108,240C1120,245,1132,203,1145,170.7C1156.9,139,1169,117,1182,138.7C1193.8,160,1206,224,1218,208C1230.8,192,1243,96,1255,64C1267.7,32,1280,64,1292,69.3C1304.6,75,1317,53,1329,85.3C1341.5,117,1354,203,1366,234.7C1378.5,267,1391,245,1403,213.3C1415.4,181,1428,139,1434,117.3L1440,96L1440,0L1433.8,0C1427.7,0,1415,0,1403,0C1390.8,0,1378,0,1366,0C1353.8,0,1342,0,1329,0C1316.9,0,1305,0,1292,0C1280,0,1268,0,1255,0C1243.1,0,1231,0,1218,0C1206.2,0,1194,0,1182,0C1169.2,0,1157,0,1145,0C1132.3,0,1120,0,1108,0C1095.4,0,1083,0,1071,0C1058.5,0,1046,0,1034,0C1021.5,0,1009,0,997,0C984.6,0,972,0,960,0C947.7,0,935,0,923,0C910.8,0,898,0,886,0C873.8,0,862,0,849,0C836.9,0,825,0,812,0C800,0,788,0,775,0C763.1,0,751,0,738,0C726.2,0,714,0,702,0C689.2,0,677,0,665,0C652.3,0,640,0,628,0C615.4,0,603,0,591,0C578.5,0,566,0,554,0C541.5,0,529,0,517,0C504.6,0,492,0,480,0C467.7,0,455,0,443,0C430.8,0,418,0,406,0C393.8,0,382,0,369,0C356.9,0,345,0,332,0C320,0,308,0,295,0C283.1,0,271,0,258,0C246.2,0,234,0,222,0C209.2,0,197,0,185,0C172.3,0,160,0,148,0C135.4,0,123,0,111,0C98.5,0,86,0,74,0C61.5,0,49,0,37,0C24.6,0,12,0,6,0L0,0Z"></path></svg>